<svg width="88" height="24" viewBox="0 0 88 24" fill="none" xmlns="http://www.w3.org/2000/svg">
<path fill-rule="evenodd" clip-rule="evenodd" d="M80.4402 21.5384C77.1983 21.5384 74.7334 19.5967 74.7334 16.1352C74.7334 12.5219 77.4343 9.11183 81.7405 9.11183C84.9823 9.11184 87.4473 11.0535 87.4473 14.4974C87.4473 18.1271 84.7288 21.5384 80.4402 21.5384ZM80.592 18.8199C83.0068 18.8199 83.7498 16.0336 83.7498 14.397C83.7498 12.591 82.8386 11.8304 81.5886 11.8303C79.1738 11.8303 78.4308 14.6166 78.4308 16.2533C78.4308 18.0593 79.342 18.8199 80.592 18.8199Z" fill="white"/>
<path d="M68.1291 21.5371C64.8873 21.5371 62.4901 19.5955 62.4901 16.1177L62.4926 16.1189C62.4926 12.5231 65.127 9.11183 69.4821 9.11183C72.5545 9.11184 74.4623 10.7837 74.6819 13.5687C74.6982 13.6703 74.648 13.7206 74.5463 13.7206L71.3885 13.7206C71.3045 13.7205 71.2367 13.6703 71.2192 13.5687C71.0673 12.3525 70.3243 11.8291 69.2776 11.8291C66.8967 11.8291 66.1876 14.6317 66.1876 16.2357C66.1876 18.0593 67.0987 18.8187 68.3488 18.8187C69.5988 18.8187 70.2401 18.0593 70.5941 17.0966C70.628 17.0126 70.6958 16.9787 70.7799 16.9787L74.0041 16.9787C74.1058 16.9787 74.156 17.0289 74.1397 17.1143C73.4807 19.5955 71.371 21.5371 68.1291 21.5371Z" fill="white"/>
<path fill-rule="evenodd" clip-rule="evenodd" d="M58.9633 21.2334C58.8792 21.2334 58.7939 21.1656 58.7939 21.0815L58.6583 18.8023H54.8429L53.6606 21.1155C53.6267 21.1995 53.5765 21.2334 53.4912 21.2334L49.7435 21.2334C49.6255 21.2334 49.5917 21.1493 49.6419 21.0477L56.1959 9.51727C56.2297 9.4495 56.2976 9.41554 56.3817 9.41554L61.1421 9.41554C61.2262 9.41555 61.3115 9.48344 61.3115 9.56753L62.3747 21.0815C62.391 21.1832 62.3407 21.2334 62.2391 21.2334H58.9633ZM58.2215 12.1002L56.2636 15.9658H58.4751L58.2215 12.1002Z" fill="white"/>
<path d="M43.9878 21.2347C43.8861 21.2347 43.8522 21.1669 43.8698 21.0652L45.3219 15.2567L45.9971 12.0325L42.9071 12.0325C42.8055 12.0325 42.7553 11.9647 42.7716 11.8643L43.3112 9.5511C43.3276 9.44948 43.3954 9.41554 43.4807 9.41554L53.4586 9.41554C53.5602 9.41557 53.6103 9.48344 53.594 9.58383L53.0544 11.8969C53.0381 11.9985 52.9703 12.0324 52.885 12.0325L49.7611 12.0325L48.9502 15.2567L47.7178 21.0978L47.7191 21.0992C47.7027 21.2008 47.635 21.2347 47.5497 21.2347H43.9878Z" fill="white"/>
<path d="M36.525 21.2347C36.4234 21.2347 36.3732 21.1668 36.3896 21.0652L37.7738 15.4437L39.0578 9.5511C39.0741 9.44949 39.1419 9.41555 39.2272 9.41554L42.6712 9.41554C42.7728 9.41556 42.8231 9.48343 42.8067 9.58383L41.3546 15.4425L40.1384 21.0978V21.0992C40.122 21.2008 40.0543 21.2347 39.969 21.2347H36.525Z" fill="white"/>
<path fill-rule="evenodd" clip-rule="evenodd" d="M25.9059 21.2347C25.8042 21.2347 25.754 21.1669 25.7703 21.0652L27.1722 15.4763L28.4386 9.5511C28.4549 9.44949 28.5227 9.41555 28.6067 9.41554L33.302 9.41554C36.4422 9.41554 37.7086 10.9179 37.7086 13.0114C37.7086 15.696 35.6829 17.5874 32.1034 17.5874L30.3638 17.5874L29.587 21.0992C29.5707 21.2008 29.5028 21.2347 29.4175 21.2347H25.9059ZM32.1537 15.0044C33.5217 15.0044 34.1115 14.2275 34.1115 13.2486C34.1115 12.5395 33.7739 11.9822 32.7096 11.9822L31.6629 11.9822L30.9374 15.0044H32.1537Z" fill="white"/>
<path d="M29.015 7.48138C28.9727 7.48138 28.9527 7.46041 28.9631 7.41496L29.5074 5.11124L30.0451 2.65021C30.0546 2.60826 30.0841 2.58728 30.1264 2.58728H32.3992C33.7896 2.58728 34.4265 3.13962 34.1788 4.2303C34.0279 4.8945 33.5599 5.40139 32.8448 5.66008L33.6026 7.40448C33.6213 7.44643 33.5958 7.48138 33.5428 7.48138H31.8912C31.8595 7.48138 31.8352 7.4639 31.8239 7.43594L31.3221 6.11803L31.2009 5.85934H30.8762L30.537 7.41496C30.5267 7.46041 30.4972 7.48138 30.4584 7.48138H29.015ZM31.114 4.79662H31.968C32.2221 4.79662 32.5801 4.6498 32.6675 4.26526C32.7659 3.83178 32.5884 3.65 32.1861 3.65H31.3814L31.114 4.79662Z" fill="white"/>
<path d="M34.2565 7.48138C34.2142 7.48138 34.1942 7.46041 34.2045 7.41496L34.7614 5.11823L35.2866 2.65021C35.2961 2.60826 35.3256 2.58728 35.3679 2.58728H39.0381C39.077 2.58728 39.0961 2.61175 39.0874 2.65021L38.8707 3.60456C38.8611 3.64651 38.8309 3.67098 38.792 3.67098H36.6252L36.4491 4.38412H38.3901C38.4289 4.38412 38.4481 4.40859 38.4394 4.44704L38.2226 5.40139C38.2131 5.44334 38.1828 5.46781 38.144 5.46781H36.203L36.0076 6.3907H38.2309C38.2697 6.3907 38.2888 6.41517 38.2801 6.45362L38.0618 7.41496C38.0523 7.45691 38.022 7.48138 37.9832 7.48138H34.2565Z" fill="white"/>
<path d="M38.844 7.48138C38.8017 7.48138 38.7817 7.46041 38.792 7.41496L39.3498 5.08327L39.8741 2.65021C39.8836 2.60826 39.9131 2.58728 39.9554 2.58728H41.3847C41.4235 2.58728 41.4435 2.60826 41.4339 2.65021L40.8532 5.08327L40.3519 7.41496C40.3416 7.46041 40.3121 7.48138 40.2733 7.48138H38.844Z" fill="white"/>
<path d="M42.7298 7.48138C42.6875 7.48138 42.6675 7.46041 42.6779 7.41496L43.2308 5.10425L43.7599 2.65021C43.7694 2.60826 43.7989 2.58728 43.8412 2.58728H45.754C47.208 2.58728 48.4155 3.2375 47.9915 5.10425C47.5819 6.90807 46.146 7.48138 44.6567 7.48138H42.7298ZM44.4915 6.3907H44.9609C45.6808 6.3907 46.1711 6.03413 46.3855 5.09027C46.6141 4.08348 46.2349 3.67098 45.5502 3.67098H45.1091L44.7688 5.07628L44.4915 6.3907Z" fill="white"/>
<path d="M50.4804 7.60723C48.8641 7.60723 48.1927 6.51655 48.5246 5.05531C48.877 3.50318 50.0186 2.46144 51.649 2.46144C53.2512 2.46144 54.0883 3.46822 53.7279 5.05531C53.3977 6.50956 52.1038 7.60723 50.4804 7.60723ZM50.7518 6.4746C51.4576 6.4746 51.9202 5.92925 52.1187 5.05531C52.3187 4.17437 52.1188 3.59407 51.3918 3.59407C50.6719 3.59407 50.2163 4.13941 50.0083 5.05531C49.8114 5.92226 50.046 6.4746 50.7518 6.4746Z" fill="white"/>
<path fill-rule="evenodd" clip-rule="evenodd" d="M6.09101 0.000253693C6.42582 0.000253693 6.72001 0.146234 6.92701 0.369267L6.96722 0.414915L7.0099 0.465881L7.08585 0.628801C7.10018 0.652473 7.11458 0.677432 7.12816 0.704014C7.13568 0.718101 7.14102 0.728753 7.14251 0.731848C7.14505 0.737125 7.14715 0.741743 7.14869 0.745084L7.43012 1.34493L7.44175 1.3698L7.45066 1.39578C7.45154 1.39833 7.45456 1.40585 7.46216 1.41878L7.48035 1.44983C7.51236 1.49215 7.55275 1.50723 7.58327 1.50723H7.6095L11.5689 0.507446L11.7392 0.464149L11.7418 0.463407L11.7445 0.462789C12.3115 0.324997 12.9026 0.253606 13.5075 0.253603C15.0965 0.253603 16.5753 0.746302 17.8305 1.59395C18.0698 1.75479 18.3002 1.92954 18.5206 2.1145L18.6145 2.19442L18.6156 2.19541C18.8928 2.43633 19.1563 2.69467 19.4035 2.9729C20.1249 3.77762 20.7035 4.72764 21.11 5.77458L21.1488 5.87626L21.1491 5.87701C21.4848 6.77598 21.6946 7.74715 21.7495 8.76343C21.7622 8.95132 21.7672 9.13983 21.7672 9.32555C21.7672 9.42595 21.7674 9.5405 21.762 9.65435C21.7394 10.3462 21.6482 11.0162 21.4905 11.6611L21.4906 11.6612C21.2381 12.7144 20.8144 13.6898 20.2567 14.5573L20.2568 14.5574C20.1746 14.6854 20.0879 14.813 19.9987 14.9376L19.9984 14.9381C19.2386 15.9969 18.2644 16.8704 17.1447 17.473C16.5374 17.7997 15.8903 18.0488 15.2092 18.2057C15.2044 18.207 15.1985 18.2089 15.1919 18.2104C15.1839 18.2124 15.1748 18.2143 15.1648 18.2161C15.1503 18.2193 15.1385 18.2214 15.1303 18.2226C15.1287 18.2228 15.1271 18.2228 15.1255 18.2231C15.0569 18.2354 14.9948 18.2385 14.9424 18.2385C14.4819 18.2385 14.0999 17.9628 13.9109 17.5883L13.8915 17.5497L13.8889 17.5416L13.7497 17.2446L13.6561 17.0493C13.6453 17.028 13.6319 17.0096 13.6174 16.9947L13.5576 16.9333L13.5398 16.895C13.5393 16.8949 13.5388 16.8948 13.5383 16.8947L13.5205 16.8931C13.514 16.8931 13.5087 16.8932 13.5043 16.8934C13.5012 16.8935 13.4989 16.8936 13.4971 16.8937L13.4916 16.8952L13.4814 16.8989L13.4655 16.9036L11.5762 17.4545L6.26247 19.0103V22.1763L0 24.0002V1.74265L5.6046 0.098847L5.74068 0.0577767L5.74365 0.0569108L5.74649 0.0560449L5.82616 0.0330356L5.8483 0.026603L5.87082 0.0222733C5.9333 0.0102163 6.00862 0.000261635 6.09101 0.000253693ZM12.0681 5.11857C11.2499 5.11857 10.4926 5.41601 9.88308 5.92105C9.80338 5.98768 9.7096 6.03637 9.60647 6.05687C9.56664 6.06456 9.5268 6.06974 9.48227 6.06974C9.43773 6.06974 9.3978 6.06457 9.35795 6.05687C9.20558 6.0261 9.07194 5.93631 8.97582 5.8107C8.96411 5.79021 8.95004 5.76971 8.93364 5.74922V5.74662C8.91031 5.71669 8.8848 5.68895 8.85744 5.66362L8.81723 5.57752C8.70665 5.48728 8.56978 5.43439 8.42138 5.43439C8.37685 5.43439 8.33231 5.43688 8.29012 5.44713C8.26668 5.45226 8.24554 5.45738 8.22444 5.46507L6.40522 5.99836L6.33248 6.0189L5.75577 6.18813V14.1073L11.4574 12.4357C11.4831 12.4255 11.5114 12.4179 11.5371 12.4127C11.577 12.4051 11.6192 12.3999 11.6613 12.3999C11.8348 12.3999 11.9906 12.4715 12.1087 12.5894L12.1557 12.6902C12.1728 12.7102 12.189 12.7311 12.204 12.7532C12.2064 12.7609 12.2111 12.7686 12.2158 12.7737C12.2275 12.7942 12.2392 12.8147 12.2509 12.8352L12.2346 12.7993C12.3518 12.9788 12.5464 13.0942 12.7644 13.0942C12.8066 13.0942 12.8488 13.0891 12.8886 13.0814H12.8933C12.898 13.0839 12.9027 13.0813 12.9051 13.0788C12.9238 13.0736 12.9426 13.0686 12.9614 13.0634C13.796 12.8353 14.5133 12.284 15.008 11.5431C15.029 11.5072 15.0525 11.4739 15.0736 11.4381H15.076C15.4816 10.7895 15.7207 10.0024 15.7207 9.15124C15.7207 9.03333 15.716 8.9154 15.7066 8.80004C15.6222 7.70024 15.1346 6.72599 14.4102 6.05687C13.7749 5.46979 12.959 5.11857 12.0681 5.11857Z" fill="white"/>
<mask id="mask0_1280_56622" style="mask-type:alpha" maskUnits="userSpaceOnUse" x="0" y="0" width="22" height="24">
<path fill-rule="evenodd" clip-rule="evenodd" d="M6.09101 9.55223e-06C6.42582 9.55223e-06 6.72001 0.14599 6.92701 0.369023L6.96722 0.41467L7.0099 0.465637L7.08585 0.628557C7.10018 0.652229 7.11458 0.677188 7.12816 0.70377C7.13568 0.717857 7.14102 0.728509 7.14251 0.731604C7.14505 0.736881 7.14715 0.741499 7.14869 0.74484L7.43012 1.34469L7.44175 1.36955L7.45066 1.39553C7.45154 1.39809 7.45456 1.4056 7.46216 1.41854L7.48035 1.44959C7.51236 1.4919 7.55275 1.50699 7.58327 1.50699H7.6095L11.5689 0.507202L11.7392 0.463905L11.7418 0.463163L11.7445 0.462544C12.3115 0.324753 12.9026 0.253362 13.5075 0.253358C15.0965 0.253358 16.5753 0.746058 17.8305 1.59371C18.0698 1.75455 18.3002 1.92929 18.5206 2.11426L18.6145 2.19417L18.6156 2.19516C18.8928 2.43609 19.1563 2.69443 19.4035 2.97265C20.1249 3.77738 20.7035 4.72739 21.11 5.77433L21.1488 5.87602L21.1491 5.87676C21.4848 6.77573 21.6946 7.74691 21.7495 8.76318C21.7622 8.95108 21.7672 9.13959 21.7672 9.3253C21.7672 9.42571 21.7674 9.54025 21.762 9.65411C21.7394 10.346 21.6482 11.016 21.4905 11.6609L21.4906 11.661C21.2381 12.7142 20.8144 13.6896 20.2567 14.5571L20.2568 14.5572C20.1746 14.6851 20.0879 14.8128 19.9987 14.9373L19.9984 14.9378C19.2386 15.9966 18.2644 16.8701 17.1447 17.4728C16.5374 17.7994 15.8903 18.0486 15.2092 18.2055C15.2044 18.2068 15.1985 18.2086 15.1919 18.2102C15.1839 18.2121 15.1748 18.214 15.1648 18.2159C15.1503 18.219 15.1385 18.2211 15.1303 18.2223C15.1287 18.2226 15.1271 18.2226 15.1255 18.2228C15.0569 18.2352 14.9948 18.2383 14.9424 18.2383C14.4819 18.2383 14.0999 17.9626 13.9109 17.5881L13.8915 17.5495L13.8889 17.5413L13.7497 17.2443L13.6561 17.0491C13.6453 17.0278 13.6319 17.0094 13.6174 16.9944L13.5576 16.9331L13.5398 16.8947C13.5393 16.8946 13.5388 16.8946 13.5383 16.8945L13.5205 16.8929C13.514 16.8929 13.5087 16.893 13.5043 16.8931C13.5012 16.8932 13.4989 16.8934 13.4971 16.8935L13.4916 16.895L13.4814 16.8987L13.4655 16.9034L11.5762 17.4542L6.26247 19.0101V22.1761L0 24V1.7424L5.6046 0.0986028L5.74068 0.0575326L5.74365 0.0566667L5.74649 0.0558007L5.82616 0.0327915L5.8483 0.0263588L5.87082 0.0220291C5.9333 0.00997216 6.00862 1.74945e-05 6.09101 9.55223e-06ZM12.0681 5.11832C11.2499 5.11833 10.4926 5.41576 9.88308 5.9208C9.80338 5.98743 9.7096 6.03613 9.60647 6.05663C9.56664 6.06432 9.5268 6.06949 9.48227 6.0695C9.43773 6.0695 9.3978 6.06432 9.35795 6.05663C9.20558 6.02586 9.07194 5.93607 8.97582 5.81046C8.96411 5.78996 8.95004 5.76947 8.93364 5.74898V5.74638C8.91031 5.71645 8.8848 5.68871 8.85744 5.66337L8.81723 5.57727C8.70665 5.48704 8.56978 5.43414 8.42138 5.43414C8.37685 5.43415 8.33231 5.43664 8.29012 5.44689C8.26668 5.45201 8.24554 5.45713 8.22444 5.46482L6.40522 5.99812L6.33248 6.01865L5.75577 6.18788V14.107L11.4574 12.4355C11.4831 12.4252 11.5114 12.4176 11.5371 12.4125C11.577 12.4048 11.6192 12.3996 11.6613 12.3996C11.8348 12.3996 11.9906 12.4712 12.1087 12.5891L12.1557 12.69C12.1728 12.7099 12.189 12.7309 12.204 12.7529C12.2064 12.7606 12.2111 12.7683 12.2158 12.7735C12.2275 12.794 12.2392 12.8145 12.2509 12.8349L12.2346 12.7991C12.3518 12.9785 12.5464 13.094 12.7644 13.094C12.8066 13.094 12.8488 13.0888 12.8886 13.0811H12.8933C12.898 13.0837 12.9027 13.0811 12.9051 13.0785C12.9238 13.0734 12.9426 13.0683 12.9614 13.0632C13.796 12.835 14.5133 12.2837 15.008 11.5428C15.029 11.507 15.0525 11.4737 15.0736 11.4378H15.076C15.4816 10.7892 15.7207 10.0021 15.7207 9.151C15.7207 9.03308 15.716 8.91515 15.7066 8.7998C15.6222 7.69999 15.1346 6.72575 14.4102 6.05663C13.7749 5.46955 12.959 5.11832 12.0681 5.11832Z" fill="white"/>
</mask>
<g mask="url(#mask0_1280_56622)">
<path d="M9.24739 6.90476L5.32042 -5.00295L25.7001 -8.45769L28.7552 17.7351L19.1279 22.6754L14.3143 19.3185L11.5908 10.958L9.24739 6.90476Z" fill="url(#paint0_linear_1280_56622)"/>
</g>
<defs>
<linearGradient id="paint0_linear_1280_56622" x1="22.2292" y1="6.05888" x2="9.67839" y2="11.687" gradientUnits="userSpaceOnUse">
<stop stop-color="#D9D9D9" stop-opacity="0"/>
<stop offset="1" stop-color="#464646"/>
</linearGradient>
</defs>
</svg>
