<svg width="16" height="16" viewBox="0 0 16 16" fill="none" xmlns="http://www.w3.org/2000/svg">
<path fill-rule="evenodd" clip-rule="evenodd" d="M12 13.9985L4 13.9985C2.89533 13.9985 2 13.1032 2 11.9985L2 3.99854C2 2.89387 2.89533 1.99854 4 1.99854L12 1.99854C13.1047 1.99854 14 2.89387 14 3.99854L14 11.9985C14 13.1032 13.1047 13.9985 12 13.9985Z" stroke="#F87171" stroke-width="1.5" stroke-linecap="round" stroke-linejoin="round"/>
<path fill-rule="evenodd" clip-rule="evenodd" d="M7.29394 6.03725L9.88194 7.56792C10.2093 7.76125 10.2093 8.23525 9.88194 8.42858L7.29394 9.95925C6.96061 10.1566 6.53928 9.91592 6.53928 9.52858L6.53928 6.46792C6.53928 6.08058 6.96061 5.83992 7.29394 6.03725Z" stroke="#F87171" stroke-width="1.5" stroke-linecap="round" stroke-linejoin="round"/>
</svg>
