<svg width="16" height="16" viewBox="0 0 16 16" fill="none" xmlns="http://www.w3.org/2000/svg">
<path d="M13.9604 1.25C14.7649 1.25016 15.4163 1.90285 15.4165 2.70703L15.4165 13.293C15.4165 14.0976 14.7639 14.75 13.9595 14.75L2.04053 14.75C1.23588 14.7498 0.583659 14.0976 0.583496 13.293L0.583496 2.70703C0.583659 1.90239 1.23589 1.25016 2.04053 1.25L13.9604 1.25ZM8.74951 6.4209C8.90202 6.49356 9.04663 6.58974 9.17725 6.70898C9.19794 6.72568 9.21856 6.74347 9.23779 6.7627C9.25702 6.78194 9.2748 6.80253 9.2915 6.82324C9.91815 7.50992 9.90171 8.57313 9.23779 9.2373C9.09208 9.38302 8.92558 9.49552 8.74951 9.5791V13.25H13.9165L13.9165 2.75L8.74951 2.75V6.4209ZM2.0835 13.25L7.24951 13.25V9.5791C7.07384 9.4956 6.90861 9.38268 6.76318 9.2373C6.07977 8.55389 6.07977 7.44611 6.76318 6.7627C6.9087 6.61723 7.07388 6.50424 7.24951 6.4209L7.24951 2.75L2.0835 2.75L2.0835 13.25ZM8.13818 7.79102C8.04124 7.727 7.90917 7.73803 7.82373 7.82324C7.7261 7.92087 7.7261 8.07913 7.82373 8.17676C7.92138 8.27414 8.0797 8.27431 8.17725 8.17676C8.26239 8.09139 8.27333 7.95923 8.20947 7.8623L8.17725 7.82324L8.13818 7.79102Z" fill="#6E6E6E"/>
<path d="M2 12C3.65685 12 5 10.2091 5 8C5 5.79086 3.65685 4 2 4" stroke="#6E6E6E" stroke-width="1.5" stroke-linecap="round" stroke-linejoin="round"/>
<path d="M14 12C12.3431 12 11 10.2091 11 8C11 5.79086 12.3431 4 14 4" stroke="#6E6E6E" stroke-width="1.5" stroke-linecap="round" stroke-linejoin="round"/>
</svg>
