<svg width="16" height="16" viewBox="0 0 16 16" fill="none" xmlns="http://www.w3.org/2000/svg">
<path d="M13.9604 1.25C14.7649 1.25016 15.4163 1.90285 15.4165 2.70703V5.25V6.75L15.4165 9.25H15.4175L15.4165 10.75V13.293C15.4165 14.0976 14.7639 14.75 13.9595 14.75L2.04053 14.75C1.23588 14.7498 0.583659 14.0976 0.583496 13.293L0.583496 2.70703C0.583659 1.90239 1.23589 1.25016 2.04053 1.25L13.9604 1.25ZM8.74951 5.35547C9.16217 5.47256 9.5532 5.68839 9.88525 6.00195C9.88612 6.00259 9.88735 6.00323 9.88818 6.00391L9.94482 6.05566L10.1343 6.26465C11.0147 7.3447 10.9513 8.9377 9.94482 9.94434C9.60054 10.2886 9.18692 10.521 8.74951 10.6445V13.25H13.9165V10.75H12.6675C11.8853 10.75 11.2505 10.1152 11.2505 9.33301L11.2505 6.66699C11.2505 5.88478 11.8853 5.25 12.6675 5.25H13.9165V2.75L8.74951 2.75V5.35547ZM2.0835 5.25H3.3335C4.11571 5.25 4.75049 5.88478 4.75049 6.66699V9.33301C4.75049 10.1152 4.11571 10.75 3.3335 10.75H2.0835V13.25L7.24951 13.25V10.6445C6.8126 10.5209 6.4001 10.2882 6.05615 9.94434C4.98221 8.8704 4.98221 7.1296 6.05615 6.05566C6.4002 5.71168 6.81276 5.47971 7.24951 5.35645L7.24951 2.75L2.0835 2.75L2.0835 5.25ZM2.0835 9.25H3.25049L3.25049 6.75H2.0835L2.0835 9.25ZM8.78955 7.03027C8.29865 6.62984 7.57437 6.65873 7.1167 7.11621C6.62855 7.60436 6.62855 8.39564 7.1167 8.88379C7.60487 9.37176 8.39619 9.37188 8.88428 8.88379C9.34171 8.42618 9.37049 7.70184 8.97021 7.21094L8.88428 7.11621L8.78955 7.03027ZM12.7505 9.25H13.9165L13.9165 6.75H12.7505L12.7505 9.25Z" fill="#A8A8A8"/>
</svg>
