<svg width="88" height="24" viewBox="0 0 88 24" fill="none" xmlns="http://www.w3.org/2000/svg">
<path fill-rule="evenodd" clip-rule="evenodd" d="M80.4401 18.2133C77.1983 18.2133 74.7333 16.2716 74.7333 12.8101C74.7334 9.19671 77.4343 5.78665 81.7405 5.78665C84.9823 5.78667 87.4472 7.72831 87.4473 11.1722C87.4473 14.8019 84.7287 18.2133 80.4401 18.2133ZM80.592 15.4947C83.0068 15.4947 83.7498 12.7084 83.7498 11.0718C83.7498 9.26579 82.8386 8.50518 81.5886 8.50517C79.1738 8.50517 78.4308 11.2915 78.4308 12.9281C78.4308 14.7341 79.342 15.4947 80.592 15.4947Z" fill="white"/>
<path d="M68.1291 18.2119C64.8873 18.2119 62.4901 16.2703 62.4901 12.7925L62.4926 12.7938C62.4926 9.19797 65.127 5.78665 69.4821 5.78665C72.5545 5.78667 74.4622 7.45852 74.6819 10.2435C74.6982 10.3452 74.648 10.3954 74.5463 10.3954L71.3885 10.3954C71.3045 10.3954 71.2367 10.3451 71.2191 10.2435C71.0673 9.02738 70.3243 8.50396 69.2776 8.50394C66.8967 8.50394 66.1876 11.3066 66.1876 12.9106C66.1876 14.7342 67.0987 15.4935 68.3488 15.4935C69.5988 15.4935 70.2401 14.7341 70.594 13.7715C70.6279 13.6874 70.6958 13.6536 70.7799 13.6536L74.0041 13.6536C74.1057 13.6536 74.156 13.7038 74.1396 13.7891C73.4807 16.2704 71.371 18.2119 68.1291 18.2119Z" fill="white"/>
<path fill-rule="evenodd" clip-rule="evenodd" d="M58.9633 17.9082C58.8792 17.9082 58.7939 17.8404 58.7939 17.7563L58.6583 15.4771H54.8428L53.6606 17.7903C53.6267 17.8743 53.5765 17.9082 53.4912 17.9082L49.7435 17.9082C49.6255 17.9082 49.5917 17.8242 49.6419 17.7225L56.1958 6.1921C56.2297 6.12432 56.2976 6.09037 56.3817 6.09037L61.1421 6.09037C61.2262 6.09038 61.3115 6.15827 61.3115 6.24235L62.3746 17.7563C62.391 17.858 62.3407 17.9082 62.2391 17.9082H58.9633ZM58.2215 8.77506L56.2636 12.6407H58.4751L58.2215 8.77506Z" fill="white"/>
<path d="M43.9878 17.9095C43.8861 17.9095 43.8522 17.8417 43.8697 17.74L45.3219 11.9315L45.9971 8.70728L42.9071 8.70728C42.8055 8.70728 42.7552 8.6395 42.7715 8.53912L43.3112 6.22593C43.3275 6.1243 43.3954 6.09037 43.4807 6.09037L53.4586 6.09037C53.5602 6.09039 53.6103 6.15826 53.594 6.25865L53.0544 8.57172C53.038 8.67337 52.9703 8.70727 52.885 8.70728L49.7611 8.70728L48.9502 11.9315L47.7178 17.7726L47.719 17.774C47.7027 17.8756 47.635 17.9095 47.5497 17.9095H43.9878Z" fill="white"/>
<path d="M36.525 17.9095C36.4233 17.9095 36.3732 17.8417 36.3895 17.74L37.7738 12.1185L39.0578 6.22593C39.0741 6.12432 39.1419 6.09037 39.2272 6.09037L42.6712 6.09037C42.7728 6.09038 42.823 6.15826 42.8067 6.25865L41.3546 12.1173L40.1383 17.7726V17.774C40.122 17.8756 40.0543 17.9095 39.969 17.9095H36.525Z" fill="white"/>
<path fill-rule="evenodd" clip-rule="evenodd" d="M25.9058 17.9095C25.8042 17.9095 25.754 17.8417 25.7703 17.74L27.1722 12.1511L28.4385 6.22592C28.4549 6.12432 28.5226 6.09038 28.6067 6.09037L33.302 6.09037C36.4422 6.09037 37.7086 7.59275 37.7086 9.68621C37.7086 12.3708 35.6829 14.2622 32.1034 14.2622L30.3638 14.2622L29.587 17.774C29.5707 17.8756 29.5028 17.9095 29.4175 17.9095H25.9058ZM32.1536 11.6793C33.5216 11.6792 34.1115 10.9023 34.1115 9.92338C34.1115 9.21429 33.7739 8.65703 32.7096 8.65702L31.6629 8.65702L30.9374 11.6793H32.1536Z" fill="white"/>
<path fill-rule="evenodd" clip-rule="evenodd" d="M6.09101 0.000244141C6.42582 0.000244141 6.72001 0.146225 6.92701 0.369258L6.96722 0.414905L7.0099 0.465872L7.08585 0.628792C7.10018 0.652463 7.11458 0.677423 7.12816 0.704005C7.13568 0.718092 7.14102 0.728743 7.14251 0.731838C7.14505 0.737115 7.14715 0.741733 7.14869 0.745075L7.43012 1.34492L7.44175 1.36979L7.45066 1.39577C7.45154 1.39832 7.45456 1.40584 7.46216 1.41878L7.48035 1.44983C7.51236 1.49214 7.55275 1.50722 7.58327 1.50722H7.6095L11.5689 0.507437L11.7392 0.46414L11.7418 0.463398L11.7445 0.462779C12.3115 0.324988 12.9026 0.253597 13.5075 0.253593C15.0965 0.253593 16.5753 0.746292 17.8305 1.59394C18.0698 1.75478 18.3002 1.92953 18.5206 2.11449L18.6145 2.19441L18.6156 2.1954C18.8928 2.43632 19.1563 2.69466 19.4035 2.97289C20.1249 3.77761 20.7035 4.72763 21.11 5.77457L21.1488 5.87626L21.1491 5.877C21.4848 6.77597 21.6946 7.74714 21.7495 8.76342C21.7622 8.95131 21.7672 9.13982 21.7672 9.32554C21.7672 9.42594 21.7674 9.54049 21.762 9.65434C21.7394 10.3462 21.6482 11.0162 21.4905 11.6611L21.4906 11.6612C21.2381 12.7144 20.8144 13.6898 20.2567 14.5573L20.2568 14.5574C20.1746 14.6854 20.0879 14.813 19.9987 14.9376L19.9984 14.9381C19.2386 15.9969 18.2644 16.8704 17.1447 17.473C16.5374 17.7997 15.8903 18.0488 15.2092 18.2057C15.2044 18.207 15.1985 18.2089 15.1919 18.2104C15.1839 18.2123 15.1748 18.2143 15.1648 18.2161C15.1503 18.2193 15.1385 18.2214 15.1303 18.2226C15.1287 18.2228 15.1271 18.2228 15.1255 18.2231C15.0569 18.2354 14.9948 18.2385 14.9424 18.2385C14.4819 18.2385 14.0999 17.9628 13.9109 17.5883L13.8915 17.5497L13.8889 17.5416L13.7497 17.2445L13.6561 17.0493C13.6453 17.028 13.6319 17.0096 13.6174 16.9947L13.5576 16.9333L13.5398 16.895C13.5393 16.8949 13.5388 16.8948 13.5383 16.8947L13.5205 16.8931C13.514 16.8931 13.5087 16.8932 13.5043 16.8933C13.5012 16.8935 13.4989 16.8936 13.4971 16.8937L13.4916 16.8952L13.4814 16.8989L13.4655 16.9036L11.5762 17.4545L6.26247 19.0103V22.1763L0 24.0002V1.74264L5.6046 0.0988374L5.74068 0.0577672L5.74365 0.0569013L5.74649 0.0560353L5.82616 0.0330261L5.8483 0.0265934L5.87082 0.0222637C5.9333 0.0102068 6.00862 0.000252083 6.09101 0.000244141ZM12.0681 5.11856C11.2499 5.11856 10.4926 5.416 9.88308 5.92104C9.80338 5.98767 9.7096 6.03636 9.60647 6.05687C9.56664 6.06455 9.5268 6.06973 9.48227 6.06973C9.43773 6.06973 9.3978 6.06456 9.35795 6.05687C9.20558 6.0261 9.07194 5.9363 8.97582 5.81069C8.96411 5.7902 8.95004 5.7697 8.93364 5.74921V5.74661C8.91031 5.71668 8.8848 5.68894 8.85744 5.66361L8.81723 5.57751C8.70665 5.48727 8.56978 5.43438 8.42138 5.43438C8.37685 5.43438 8.33231 5.43687 8.29012 5.44712C8.26668 5.45225 8.24554 5.45737 8.22444 5.46506L6.40522 5.99835L6.33248 6.01889L5.75577 6.18812V14.1072L11.4574 12.4357C11.4831 12.4255 11.5114 12.4179 11.5371 12.4127C11.577 12.405 11.6192 12.3999 11.6613 12.3999C11.8348 12.3999 11.9906 12.4715 12.1087 12.5894L12.1557 12.6902C12.1728 12.7102 12.189 12.7311 12.204 12.7532C12.2064 12.7609 12.2111 12.7686 12.2158 12.7737C12.2275 12.7942 12.2392 12.8147 12.2509 12.8352L12.2346 12.7993C12.3518 12.9788 12.5464 13.0942 12.7644 13.0942C12.8066 13.0942 12.8488 13.089 12.8886 13.0814H12.8933C12.898 13.0839 12.9027 13.0813 12.9051 13.0788C12.9238 13.0736 12.9426 13.0685 12.9614 13.0634C13.796 12.8352 14.5133 12.284 15.008 11.5431C15.029 11.5072 15.0525 11.4739 15.0736 11.4381H15.076C15.4816 10.7894 15.7207 10.0024 15.7207 9.15123C15.7207 9.03332 15.716 8.91539 15.7066 8.80003C15.6222 7.70023 15.1346 6.72599 14.4102 6.05687C13.7749 5.46978 12.959 5.11856 12.0681 5.11856Z" fill="white"/>
<mask id="mask0_10_53" style="mask-type:alpha" maskUnits="userSpaceOnUse" x="0" y="0" width="22" height="24">
<path fill-rule="evenodd" clip-rule="evenodd" d="M6.09103 0C6.42583 0 6.72003 0.145981 6.92703 0.369013L6.96723 0.414661L7.00991 0.465627L7.08587 0.628548C7.1002 0.652219 7.1146 0.677179 7.12817 0.703761C7.13569 0.717847 7.14103 0.728499 7.14252 0.731594C7.14506 0.736871 7.14716 0.741489 7.14871 0.744831L7.43014 1.34468L7.44177 1.36954L7.45067 1.39552C7.45155 1.39808 7.45457 1.40559 7.46218 1.41853L7.48036 1.44958C7.51238 1.49189 7.55277 1.50698 7.58329 1.50698H7.60951L11.569 0.507193L11.7392 0.463896L11.7418 0.463153L11.7445 0.462535C12.3115 0.324744 12.9027 0.253353 13.5075 0.253349C15.0965 0.253349 16.5753 0.746048 17.8306 1.5937C18.0698 1.75454 18.3002 1.92928 18.5206 2.11425L18.6145 2.19416L18.6156 2.19515C18.8928 2.43608 19.1564 2.69442 19.4035 2.97264C20.1249 3.77737 20.7036 4.72738 21.11 5.77433L21.1488 5.87601L21.1491 5.87675C21.4848 6.77572 21.6946 7.7469 21.7495 8.76317C21.7622 8.95107 21.7672 9.13958 21.7672 9.32529C21.7672 9.4257 21.7674 9.54024 21.762 9.6541C21.7395 10.346 21.6482 11.016 21.4905 11.6609L21.4906 11.661C21.2381 12.7142 20.8144 13.6895 20.2567 14.557L20.2568 14.5572C20.1746 14.6851 20.0879 14.8128 19.9987 14.9373L19.9984 14.9378C19.2387 15.9966 18.2645 16.8701 17.1447 17.4728C16.5374 17.7994 15.8904 18.0486 15.2092 18.2055C15.2044 18.2068 15.1985 18.2086 15.1919 18.2102C15.1839 18.2121 15.1748 18.214 15.1648 18.2159C15.1503 18.219 15.1385 18.2211 15.1303 18.2223C15.1287 18.2226 15.1271 18.2226 15.1255 18.2228C15.0569 18.2351 14.9948 18.2383 14.9424 18.2383C14.4819 18.2383 14.0999 17.9626 13.9109 17.5881L13.8915 17.5495L13.8889 17.5413L13.7498 17.2443L13.6561 17.0491C13.6453 17.0278 13.632 17.0094 13.6174 16.9944L13.5576 16.9331L13.5398 16.8947C13.5393 16.8946 13.5388 16.8946 13.5383 16.8945L13.5205 16.8929C13.514 16.8929 13.5087 16.8929 13.5043 16.8931C13.5012 16.8932 13.4989 16.8934 13.4972 16.8935L13.4916 16.895L13.4814 16.8987L13.4655 16.9034L11.5763 17.4542L6.26248 19.0101V22.1761L1.52588e-05 24V1.74239L5.60462 0.0985933L5.74069 0.0575231L5.74366 0.0566571L5.74651 0.0557912L5.82617 0.032782L5.84832 0.0263493L5.87083 0.0220196C5.93331 0.00996261 6.00864 7.94224e-06 6.09103 0ZM12.0681 5.11831C11.2499 5.11832 10.4926 5.41575 9.88309 5.92079C9.8034 5.98742 9.70962 6.03612 9.60649 6.05662C9.56665 6.06431 9.52681 6.06948 9.48229 6.06949C9.43775 6.06949 9.39782 6.06431 9.35796 6.05662C9.20559 6.02585 9.07195 5.93606 8.97584 5.81045C8.96412 5.78995 8.95005 5.76946 8.93366 5.74897V5.74637C8.91032 5.71644 8.88481 5.6887 8.85745 5.66336L8.81725 5.57726C8.70667 5.48703 8.5698 5.43414 8.42139 5.43414C8.37686 5.43414 8.33233 5.43663 8.29014 5.44688C8.2667 5.452 8.24555 5.45712 8.22445 5.46481L6.40524 5.99811L6.3325 6.01864L5.75578 6.18787V14.107L11.4574 12.4355C11.4832 12.4252 11.5114 12.4176 11.5372 12.4125C11.577 12.4048 11.6192 12.3996 11.6614 12.3996C11.8348 12.3996 11.9907 12.4712 12.1087 12.5891L12.1557 12.69C12.1728 12.7099 12.1891 12.7308 12.2041 12.7529C12.2064 12.7606 12.2111 12.7683 12.2158 12.7735C12.2275 12.7939 12.2392 12.8144 12.2509 12.8349L12.2346 12.7991C12.3518 12.9785 12.5464 13.094 12.7644 13.094C12.8066 13.094 12.8488 13.0888 12.8886 13.0811H12.8933C12.898 13.0837 12.9028 13.0811 12.9051 13.0785C12.9238 13.0734 12.9426 13.0683 12.9614 13.0632C13.796 12.835 14.5133 12.2837 15.008 11.5428C15.0291 11.507 15.0526 11.4737 15.0737 11.4378H15.076C15.4816 10.7892 15.7208 10.0021 15.7208 9.15099C15.7208 9.03307 15.716 8.91514 15.7067 8.79979C15.6223 7.69998 15.1346 6.72574 14.4102 6.05662C13.7749 5.46954 12.959 5.11831 12.0681 5.11831Z" fill="white"/>
</mask>
<g mask="url(#mask0_10_53)">
<path d="M9.24745 6.90485L5.32047 -5.00285L25.7002 -8.45759L28.7552 17.7352L19.128 22.6755L14.3144 19.3186L11.5909 10.9581L9.24745 6.90485Z" fill="url(#paint0_linear_10_53)"/>
</g>
<defs>
<linearGradient id="paint0_linear_10_53" x1="22.2293" y1="6.05897" x2="9.67845" y2="11.6871" gradientUnits="userSpaceOnUse">
<stop stop-color="#D9D9D9" stop-opacity="0"/>
<stop offset="1" stop-color="#464646"/>
</linearGradient>
</defs>
</svg>
