<svg width="24" height="24" viewBox="0 0 24 24" fill="none" xmlns="http://www.w3.org/2000/svg">
<path fill-rule="evenodd" clip-rule="evenodd" d="M10.3043 1.74586C12.5552 1.69562 14.7397 2.51538 16.402 4.03395C18.0641 5.55267 19.0763 7.6548 19.2291 9.90114C19.3713 11.9948 18.7558 14.0641 17.5045 15.7361L21.8834 20.115C21.9995 20.231 22.092 20.3697 22.1549 20.5213C22.2176 20.6728 22.2505 20.8358 22.2506 20.9998C22.2506 21.1639 22.2177 21.3267 22.1549 21.4783C22.0921 21.6297 21.9993 21.7666 21.8834 21.8826C21.7673 21.9988 21.6299 22.0921 21.4781 22.155C21.3265 22.2178 21.1637 22.2498 20.9996 22.2498C20.8355 22.2497 20.6727 22.2178 20.5211 22.155C20.3695 22.0921 20.2308 21.9997 20.1148 21.8836L15.7359 17.5027C14.0627 18.7529 11.9929 19.3675 9.89902 19.2234C7.65284 19.0687 5.55202 18.0539 4.03477 16.3904C2.51766 14.7268 1.69932 12.5417 1.75156 10.2908C1.80394 8.04003 2.72245 5.89579 4.31504 4.30446C5.90784 2.71308 8.05331 1.79622 10.3043 1.74586ZM8.10801 4.72536C9.24988 4.2524 10.5071 4.12886 11.7193 4.36989C12.9314 4.61106 14.0456 5.2061 14.9195 6.07985C15.7934 6.95374 16.3883 8.06798 16.6295 9.28004C16.8706 10.4923 16.747 11.7494 16.274 12.8914C15.801 14.0333 14.9999 15.0093 13.9723 15.6961C12.9445 16.3828 11.7357 16.7488 10.4996 16.7488C8.84282 16.7467 7.25419 16.0883 6.08262 14.9168C4.91125 13.7452 4.25165 12.1565 4.24961 10.4998C4.2497 9.2638 4.61665 8.05479 5.30332 7.02711C5.99003 5.99954 6.96618 5.19835 8.10801 4.72536Z" fill="white"/>
</svg>
