<svg width="24" height="24" viewBox="0 0 24 24" fill="none" xmlns="http://www.w3.org/2000/svg">
<path d="M12.7236 7.55957C13.1738 7.55959 13.5862 7.73479 13.9072 8.02832C14.2732 8.36278 14.5197 8.84972 14.5625 9.39941C14.5672 9.45699 14.5693 9.51634 14.5693 9.5752C14.5693 10.0008 14.4481 10.3944 14.2432 10.7188C14.2325 10.7367 14.2196 10.7535 14.209 10.7715C13.959 11.1419 13.5965 11.4172 13.1748 11.5312C13.1654 11.5338 13.1559 11.5365 13.1465 11.5391C13.1453 11.5403 13.1429 11.5421 13.1406 11.541H13.1387C13.1185 11.5449 13.0965 11.5469 13.0752 11.5469C12.9651 11.5468 12.8668 11.4891 12.8076 11.3994L12.8164 11.417C12.8105 11.4068 12.8037 11.3969 12.7979 11.3867C12.7956 11.3842 12.7932 11.3806 12.792 11.377C12.7844 11.3659 12.7762 11.3547 12.7676 11.3447L12.7441 11.2949C12.6845 11.236 12.6052 11.2002 12.5176 11.2002C12.4964 11.2002 12.4751 11.2022 12.4551 11.2061C12.4421 11.2086 12.428 11.2127 12.415 11.2178L9.5332 12.0537V8.09375L9.8252 8.00977L10.7812 7.73242C10.7919 7.72859 10.8026 7.72619 10.8145 7.72363C10.8358 7.71851 10.8584 7.7168 10.8809 7.7168C10.9558 7.71683 11.0252 7.74397 11.0811 7.78906L11.1016 7.83203C11.1152 7.84458 11.128 7.85826 11.1396 7.87305C11.1479 7.88329 11.1552 7.89503 11.1611 7.90527C11.2097 7.96801 11.2775 8.01295 11.3545 8.02832C11.3745 8.03212 11.3947 8.03516 11.417 8.03516C11.4394 8.03514 11.4594 8.03214 11.4795 8.02832C11.5316 8.01807 11.5789 7.99328 11.6191 7.95996C11.9272 7.70747 12.3102 7.55957 12.7236 7.55957Z" fill="white"/>
<path fill-rule="evenodd" clip-rule="evenodd" d="M19 2C20.6569 2 22 3.34315 22 5V15.1455C22 16.2818 21.3581 17.3209 20.3418 17.8291L13.3418 21.3291C12.4972 21.7514 11.5028 21.7514 10.6582 21.3291L3.6582 17.8291C2.64194 17.3209 2 16.2818 2 15.1455V5C2 3.34315 3.34315 2 5 2H19ZM9.5918 5.01074L9.58008 5.0127L9.56934 5.0166L9.5293 5.02832H9.52637L9.45703 5.04883L6.625 5.87109V17L9.79004 16.0879V14.5049L12.4746 13.7275L13.4297 13.4521L13.4375 13.4492L13.4434 13.4473L13.4453 13.4463H13.458L13.4668 13.4473L13.4766 13.4668L13.5068 13.4971C13.5142 13.5045 13.5209 13.5138 13.5264 13.5244L13.5732 13.6221L13.6436 13.7705L13.6553 13.7939C13.7507 13.9811 13.9433 14.119 14.1758 14.1191C14.2023 14.1191 14.2339 14.1175 14.2686 14.1113H14.2715C14.2755 14.1107 14.2812 14.1099 14.2881 14.1084C14.2929 14.1075 14.2978 14.1064 14.3018 14.1055C14.3049 14.1047 14.3082 14.1032 14.3105 14.1025C14.6547 14.0241 14.9821 13.8996 15.2891 13.7363C15.7841 13.4727 16.2229 13.1054 16.582 12.6631L16.7314 12.4688C16.7765 12.4065 16.8198 12.3423 16.8613 12.2783C17.1432 11.8446 17.3577 11.3567 17.4854 10.8301C17.565 10.5078 17.6107 10.1729 17.6221 9.82715C17.6248 9.77039 17.625 9.71318 17.625 9.66309C17.625 9.57031 17.6226 9.4757 17.6162 9.38184C17.5954 9.00079 17.5304 8.63219 17.4277 8.28223L17.3125 7.93848L17.293 7.88672C17.0876 7.36343 16.7951 6.88858 16.4307 6.48633C16.3058 6.34722 16.1723 6.21812 16.0322 6.09766L15.9844 6.05664C15.8731 5.96425 15.7565 5.87723 15.6357 5.79688C15.0014 5.37308 14.2541 5.12699 13.4512 5.12695C13.1455 5.12696 12.8461 5.16255 12.5596 5.23145L12.5576 5.23242L10.4707 5.75391H10.457C10.4416 5.75386 10.4214 5.7457 10.4053 5.72461L10.3955 5.70898C10.3923 5.70354 10.3912 5.69986 10.3906 5.69824L10.3857 5.68457L10.3799 5.67188L10.2373 5.37207C10.2366 5.37051 10.2355 5.36853 10.2344 5.36621C10.2336 5.36466 10.2313 5.35861 10.2275 5.35156C10.2207 5.3384 10.2132 5.32619 10.2061 5.31445L10.167 5.23242L10.1455 5.20703L10.126 5.18457C10.0214 5.07306 9.8723 5.00001 9.70312 5C9.66151 5 9.62336 5.00472 9.5918 5.01074Z" fill="white"/>
</svg>
