<svg width="24" height="24" viewBox="0 0 24 24" fill="none" xmlns="http://www.w3.org/2000/svg">
<path d="M15.75 12C15.75 12.7417 15.5301 13.4667 15.118 14.0834C14.7059 14.7001 14.1203 15.1807 13.4351 15.4645C12.7498 15.7484 11.9958 15.8226 11.2684 15.6779C10.541 15.5332 9.87279 15.1761 9.34834 14.6516C8.82389 14.1272 8.46674 13.459 8.32204 12.7316C8.17735 12.0042 8.25161 11.2502 8.53544 10.5649C8.81927 9.87971 9.29992 9.29404 9.9166 8.88199C10.5333 8.46993 11.2583 8.25 12 8.25C12.9946 8.25 13.9484 8.64508 14.6516 9.34835C15.3549 10.0516 15.75 11.0054 15.75 12ZM19.5 12C19.5022 10.1549 18.8221 8.37409 17.5903 7.00031C17.5251 6.92513 17.4457 6.86367 17.3565 6.81951C17.2673 6.77535 17.1703 6.74937 17.071 6.74308C16.9717 6.73679 16.8721 6.75033 16.7781 6.78289C16.6841 6.81546 16.5975 6.8664 16.5234 6.93276C16.4492 6.99912 16.3891 7.07956 16.3463 7.16941C16.3036 7.25926 16.2791 7.35671 16.2744 7.4561C16.2697 7.55548 16.2848 7.65481 16.3189 7.74829C16.353 7.84178 16.4053 7.92755 16.4728 8.00062C17.4566 9.10065 18.0005 10.5247 18.0005 12.0005C18.0005 13.4763 17.4566 14.9003 16.4728 16.0003C16.3439 16.149 16.2786 16.3425 16.291 16.539C16.3034 16.7354 16.3926 16.9191 16.5393 17.0504C16.686 17.1817 16.8784 17.2501 17.075 17.2407C17.2716 17.2314 17.4567 17.1452 17.5903 17.0006C18.8219 15.6264 19.502 13.8454 19.5 12ZM7.52718 8.00062C7.59471 7.92755 7.64702 7.84178 7.68108 7.74829C7.71513 7.65481 7.73025 7.55548 7.72554 7.4561C7.72083 7.35671 7.6964 7.25926 7.65366 7.16941C7.61092 7.07956 7.55073 6.99912 7.4766 6.93276C7.40247 6.8664 7.31587 6.81546 7.22186 6.78289C7.12784 6.75033 7.02829 6.73679 6.92899 6.74308C6.82969 6.74937 6.73264 6.77535 6.64348 6.81951C6.55433 6.86367 6.47485 6.92513 6.40968 7.00031C5.17855 8.37482 4.49778 10.1552 4.49778 12.0005C4.49778 13.8457 5.17855 15.6261 6.40968 17.0006C6.54328 17.1452 6.72836 17.2314 6.92499 17.2407C7.12162 17.2501 7.31402 17.1817 7.46069 17.0504C7.60736 16.9191 7.69654 16.7354 7.70898 16.539C7.72141 16.3425 7.65612 16.149 7.52718 16.0003C6.54239 14.9008 5.99785 13.4765 5.99785 12.0005C5.99785 10.5244 6.54239 9.10018 7.52718 8.00062ZM22.3659 7.62562C21.817 6.32206 21.0262 5.13426 20.0353 4.125C19.967 4.05197 19.8848 3.99334 19.7935 3.95256C19.7022 3.91177 19.6037 3.88964 19.5037 3.88749C19.4038 3.88533 19.3044 3.90318 19.2114 3.94C19.1185 3.97681 19.0338 4.03184 18.9624 4.10185C18.891 4.17186 18.8344 4.25544 18.7957 4.34767C18.7571 4.4399 18.7373 4.53892 18.7376 4.6389C18.7378 4.73889 18.758 4.83782 18.797 4.92989C18.836 5.02195 18.893 5.10529 18.9647 5.175C20.7522 6.99622 21.7537 9.44621 21.7537 11.9981C21.7537 14.55 20.7522 17 18.9647 18.8212C18.8955 18.8915 18.8408 18.9748 18.8038 19.0662C18.7668 19.1576 18.7481 19.2555 18.7489 19.3541C18.7497 19.4527 18.7699 19.5502 18.8084 19.6411C18.8468 19.7319 18.9028 19.8142 18.9731 19.8834C19.0434 19.9526 19.1267 20.0073 19.2181 20.0443C19.3095 20.0813 19.4073 20.1 19.506 20.0992C19.6046 20.0984 19.7021 20.0782 19.7929 20.0397C19.8838 20.0013 19.9661 19.9453 20.0353 19.875C21.588 18.2894 22.6376 16.2803 23.0522 14.1001C23.4669 11.92 23.2281 9.66586 22.3659 7.62093V7.62562ZM3.01593 15.795C2.26653 14.0235 2.0584 12.0698 2.41777 10.1801C2.77714 8.29053 3.68793 6.54961 5.0353 5.17687C5.17479 5.0349 5.25216 4.84333 5.25041 4.6443C5.24865 4.44528 5.1679 4.25511 5.02593 4.11562C4.88395 3.97613 4.69238 3.89876 4.49336 3.90052C4.29434 3.90227 4.10416 3.98302 3.96468 4.125C1.90047 6.22643 0.743896 9.05433 0.743896 12C0.743896 14.9457 1.90047 17.7736 3.96468 19.875C4.03298 19.948 4.11519 20.0066 4.20648 20.0474C4.29777 20.0882 4.39629 20.1103 4.49625 20.1125C4.59621 20.1147 4.6956 20.0968 4.78856 20.06C4.88153 20.0232 4.96619 19.9682 5.03757 19.8981C5.10896 19.8281 5.16563 19.7446 5.20424 19.6523C5.24285 19.5601 5.26264 19.4611 5.26243 19.3611C5.26221 19.2611 5.24201 19.1622 5.20301 19.0701C5.164 18.978 5.10698 18.8947 5.0353 18.825C4.17719 17.9513 3.49203 16.9233 3.01593 15.795Z" fill="white"/>
</svg>
