<svg preserveAspectRatio="none" width="100%" height="100%" overflow="visible" style="display: block;" viewBox="0 0 24 24" fill="none" xmlns="http://www.w3.org/2000/svg">
<g id="icon">
<path id="line" d="M5 2.75H19C20.2426 2.75 21.25 3.75736 21.25 5V15.1455C21.25 15.9977 20.7681 16.7771 20.0059 17.1582L13.0059 20.6582C12.3726 20.9748 11.6274 20.9748 10.9941 20.6582L3.99414 17.1582C3.23188 16.7771 2.75 15.9977 2.75 15.1455V5C2.75 3.75736 3.75736 2.75 5 2.75Z" stroke="var(--stroke-0, white)" stroke-width="1.5"/>
<path id="logo" fill-rule="evenodd" clip-rule="evenodd" d="M10.0184 6C10.1569 6 10.2785 6.06083 10.3641 6.15376L10.3807 6.17278L10.3984 6.19401L10.4298 6.2619C10.4357 6.27176 10.4416 6.28216 10.4472 6.29323C10.4504 6.2991 10.4526 6.30354 10.4532 6.30483C10.4542 6.30703 10.4551 6.30895 10.4557 6.31035L10.5721 6.56028L10.5769 6.57064L10.5806 6.58147C10.581 6.58253 10.5822 6.58566 10.5853 6.59106L10.5929 6.60399C10.6061 6.62162 10.6228 6.62791 10.6354 6.62791H10.6463L12.2834 6.21133L12.3537 6.19329L12.3548 6.19298L12.3559 6.19272C12.5904 6.13531 12.8348 6.10556 13.0849 6.10556C13.7419 6.10556 14.3533 6.31085 14.8723 6.66404C14.9712 6.73106 15.0665 6.80387 15.1576 6.88094L15.1964 6.91424L15.1969 6.91465C15.3115 7.01503 15.4205 7.12268 15.5227 7.2386C15.8209 7.5739 16.0602 7.96975 16.2283 8.40597L16.2443 8.44834L16.2444 8.44865C16.3832 8.82322 16.47 9.22788 16.4927 9.65133C16.4979 9.72962 16.5 9.80816 16.5 9.88554C16.5 9.92738 16.5001 9.97511 16.4979 10.0225C16.4885 10.3108 16.4508 10.59 16.3856 10.8587L16.3856 10.8587C16.2812 11.2976 16.106 11.704 15.8754 12.0654L15.8755 12.0655C15.8415 12.1188 15.8056 12.172 15.7688 12.2239L15.7686 12.2241C15.4545 12.6653 15.0517 13.0292 14.5888 13.2803C14.3376 13.4164 14.0701 13.5203 13.7885 13.5856C13.7865 13.5862 13.7841 13.5869 13.7813 13.5876C13.778 13.5884 13.7743 13.5892 13.7701 13.59C13.7641 13.5913 13.7593 13.5921 13.7559 13.5926C13.7552 13.5927 13.7545 13.5928 13.7539 13.5928C13.7255 13.598 13.6998 13.5993 13.6782 13.5993C13.4878 13.5993 13.3298 13.4844 13.2517 13.3284L13.2437 13.3123L13.2426 13.3089L13.185 13.1851L13.1463 13.1038C13.1419 13.0949 13.1363 13.0873 13.1303 13.081L13.1056 13.0554L13.0982 13.0395C13.098 13.0394 13.0978 13.0394 13.0976 13.0394L13.0903 13.0387C13.0876 13.0387 13.0854 13.0387 13.0836 13.0388C13.0823 13.0388 13.0813 13.0389 13.0806 13.039L13.0783 13.0396L13.0741 13.0411L13.0675 13.0431L12.2864 13.2726L10.0893 13.9209V15.24L7.5 16V6.726L9.81731 6.04108L9.87357 6.02397L9.8748 6.02361L9.87598 6.02325L9.90892 6.01366L9.91807 6.01098L9.92738 6.00917C9.95322 6.00415 9.98436 6 10.0184 6ZM12.4897 8.13263C12.1514 8.13264 11.8383 8.25657 11.5863 8.467C11.5534 8.49476 11.5146 8.51505 11.4719 8.52359C11.4555 8.5268 11.439 8.52895 11.4206 8.52895C11.4022 8.52895 11.3857 8.5268 11.3692 8.52359C11.3062 8.51077 11.2509 8.47336 11.2112 8.42102C11.2064 8.41248 11.2005 8.40394 11.1938 8.3954V8.39432C11.1841 8.38185 11.1736 8.37029 11.1622 8.35974L11.1456 8.32386C11.0999 8.28626 11.0433 8.26422 10.982 8.26422C10.9635 8.26423 10.9451 8.26526 10.9277 8.26953C10.918 8.27167 10.9092 8.2738 10.9005 8.27701L10.1483 8.49921L10.1183 8.50777L9.87981 8.57828V11.8779L12.2372 11.1815C12.2479 11.1772 12.2596 11.174 12.2702 11.1719C12.2867 11.1687 12.3041 11.1665 12.3216 11.1665C12.3933 11.1665 12.4577 11.1963 12.5065 11.2455L12.526 11.2875C12.533 11.2958 12.5398 11.3045 12.546 11.3137C12.5469 11.3169 12.5489 11.3201 12.5508 11.3223C12.5557 11.3308 12.5605 11.3394 12.5653 11.3479L12.5586 11.3329C12.6071 11.4077 12.6875 11.4558 12.7777 11.4558C12.7951 11.4558 12.8125 11.4537 12.829 11.4505H12.831C12.8329 11.4515 12.8348 11.4505 12.8358 11.4494C12.8436 11.4473 12.8513 11.4451 12.8591 11.443C13.2042 11.3479 13.5007 11.1182 13.7053 10.8095C13.714 10.7946 13.7237 10.7807 13.7324 10.7658H13.7334C13.9011 10.4955 14 10.1676 14 9.81292C14 9.76378 13.998 9.71465 13.9942 9.66658C13.9593 9.20833 13.7576 8.80239 13.4581 8.52359C13.1954 8.27898 12.8581 8.13263 12.4897 8.13263Z" fill="var(--fill-0, white)"/>
</g>
</svg>
